<svg xmlns="http://www.w3.org/2000/svg" viewBox="0 0 64 64" role="img" aria-label="Pangea Music">
  <title>Pangea Music</title>
  <defs>
    <linearGradient id="vinilo" x1="0" y1="0" x2="1" y2="1">
      <stop offset="0" stop-color="#7a8c81" />
      <stop offset="1" stop-color="#46564d" />
    </linearGradient>
    <linearGradient id="etiqueta" x1="0" y1="0" x2="0" y2="1">
      <stop offset="0" stop-color="#fefdfb" />
      <stop offset="1" stop-color="#dfe7dc" />
    </linearGradient>
  </defs>

  <circle cx="32" cy="32" r="31" fill="url(#vinilo)" />

  <g fill="none" stroke="#e6ece5" stroke-opacity="0.3" stroke-width="1.4">
    <circle cx="32" cy="32" r="28" />
    <circle cx="32" cy="32" r="24" />
    <circle cx="32" cy="32" r="20" />
  </g>

  <circle cx="32" cy="32" r="16.5" fill="url(#etiqueta)" />

  <g transform="translate(32 32) scale(1.15) translate(-32 -32)">
    <path
      d="M24 21.5c5-2.3 12-1.5 16 1.5 2 1.4 1.3 3.6-1.3 4.3-1.8 0.5-2.8 2-3 4.1 0.2 2 1.3 3.3 3.2 4.1 2.3 1 2.5 3.2 0.3 4.6-4 2.5-10.4 3.2-14.6 1.1-3-1.5-4.4-4.6-4.6-8-0.2-3-0.7-6.4 0.6-8.8 0.8-1.5 2-2.3 3.4-2.9Z"
      fill="#46564d"
    />
  </g>

  <circle cx="32" cy="32" r="2.8" fill="#dfe7dc" stroke="#46564d" stroke-width="1" />
</svg>
